<svg width="140" height="140" viewBox="0 0 140 140" fill="none" xmlns="http://www.w3.org/2000/svg">
<circle cx="70" cy="70" r="70" fill="#FF5A5D"/>
<circle cx="70" cy="70" r="57" stroke="white" stroke-opacity="0.3" stroke-width="2" stroke-dasharray="4 4"/>
<path d="M38.6775 65H46.9795V62.83H43.0595L45.3415 60.786C45.7615 60.422 46.1021 60.0207 46.3635 59.582C46.6248 59.134 46.7555 58.644 46.7555 58.112C46.7555 57.7387 46.6761 57.37 46.5175 57.006C46.3588 56.642 46.1208 56.3107 45.8035 56.012C45.4955 55.704 45.1081 55.4613 44.6415 55.284C44.1748 55.0973 43.6381 55.004 43.0315 55.004C42.1915 55.004 41.4775 55.1767 40.8895 55.522C40.3108 55.8673 39.8768 56.3293 39.5875 56.908C39.2981 57.4867 39.1535 58.126 39.1535 58.826H41.4775C41.4775 58.4713 41.5335 58.1587 41.6455 57.888C41.7668 57.6173 41.9395 57.4073 42.1635 57.258C42.3968 57.1087 42.6628 57.034 42.9615 57.034C43.1855 57.034 43.3815 57.0713 43.5495 57.146C43.7175 57.2113 43.8575 57.3047 43.9695 57.426C44.0815 57.538 44.1655 57.6687 44.2215 57.818C44.2775 57.9673 44.3055 58.1167 44.3055 58.266C44.3055 58.5273 44.2541 58.7747 44.1515 59.008C44.0581 59.232 43.9135 59.4607 43.7175 59.694C43.5308 59.9273 43.3068 60.1887 43.0455 60.478L38.6775 65ZM56.055 61.864C56.055 61.1827 55.915 60.604 55.635 60.128C55.355 59.652 54.9863 59.288 54.529 59.036C54.081 58.784 53.5956 58.658 53.073 58.658C52.765 58.658 52.4663 58.686 52.177 58.742C51.897 58.7887 51.6263 58.8727 51.365 58.994L51.925 57.244H55.845V55.2H50.189L48.817 60.856C49.153 60.688 49.4796 60.562 49.797 60.478C50.1236 60.3847 50.4363 60.324 50.735 60.296C51.043 60.2587 51.323 60.24 51.575 60.24C51.9016 60.24 52.205 60.2867 52.485 60.38C52.7743 60.4733 53.0076 60.6227 53.185 60.828C53.3716 61.024 53.465 61.2853 53.465 61.612C53.465 61.92 53.3903 62.1813 53.241 62.396C53.0916 62.6107 52.877 62.7693 52.597 62.872C52.317 62.9747 51.9763 63.026 51.575 63.026C51.3416 63.026 51.0803 62.984 50.791 62.9C50.5016 62.8067 50.2123 62.6853 49.923 62.536C49.643 62.3773 49.3676 62.186 49.097 61.962L48.173 63.908C48.481 64.132 48.8216 64.342 49.195 64.538C49.5683 64.734 49.993 64.888 50.469 65C50.9543 65.1213 51.4956 65.182 52.093 65.182C52.569 65.182 53.0403 65.1213 53.507 65C53.9736 64.8693 54.3983 64.6687 54.781 64.398C55.173 64.1273 55.481 63.782 55.705 63.362C55.9383 62.942 56.055 62.4427 56.055 61.864ZM57.5184 62.256H65.1344V60.212H57.5184V62.256ZM60.2344 57.44V65.028H62.4184V57.44H60.2344ZM72.58 55.2L70.662 58.882L68.744 55.2H66.028L69.458 61.024V65H71.866V61.01L75.296 55.2H72.58ZM77.9916 65.14C78.813 65.14 79.5083 64.9813 80.0776 64.664C80.6563 64.3467 81.1136 63.8707 81.4496 63.236L79.5596 62.774C79.401 63.054 79.1863 63.264 78.9156 63.404C78.6543 63.544 78.337 63.614 77.9636 63.614C77.637 63.614 77.3616 63.544 77.1376 63.404C76.9136 63.2547 76.7456 63.04 76.6336 62.76C76.5216 62.48 76.4656 62.144 76.4656 61.752C76.475 61.3227 76.531 60.968 76.6336 60.688C76.7456 60.3987 76.909 60.184 77.1236 60.044C77.3383 59.904 77.6043 59.834 77.9216 59.834C78.1736 59.834 78.393 59.89 78.5796 60.002C78.7663 60.114 78.911 60.2727 79.0136 60.478C79.1163 60.6833 79.1676 60.926 79.1676 61.206C79.1676 61.2713 79.149 61.3553 79.1116 61.458C79.0836 61.5513 79.0463 61.6307 78.9996 61.696L79.5036 61.052H75.5276V62.228H81.4076C81.4263 62.1627 81.4356 62.0833 81.4356 61.99C81.4356 61.8873 81.4356 61.7847 81.4356 61.682C81.4356 60.9913 81.3003 60.4033 81.0296 59.918C80.759 59.4327 80.367 59.064 79.8536 58.812C79.3403 58.5507 78.7103 58.42 77.9636 58.42C77.217 58.42 76.5683 58.5553 76.0176 58.826C75.4763 59.0967 75.061 59.484 74.7716 59.988C74.4823 60.492 74.3376 61.0893 74.3376 61.78C74.3376 62.4613 74.487 63.054 74.7856 63.558C75.0843 64.062 75.5043 64.454 76.0456 64.734C76.5963 65.0047 77.245 65.14 77.9916 65.14ZM84.379 62.984C84.379 62.8253 84.4164 62.6947 84.491 62.592C84.5657 62.48 84.6777 62.396 84.827 62.34C84.9764 62.284 85.177 62.256 85.429 62.256C85.7557 62.256 86.0637 62.3027 86.353 62.396C86.6517 62.48 86.913 62.606 87.137 62.774V61.836C87.025 61.7147 86.857 61.598 86.633 61.486C86.409 61.374 86.1384 61.2807 85.821 61.206C85.513 61.1313 85.163 61.094 84.771 61.094C83.9684 61.094 83.3477 61.276 82.909 61.64C82.4704 61.9947 82.251 62.48 82.251 63.096C82.251 63.5347 82.3537 63.908 82.559 64.216C82.7737 64.524 83.0537 64.7573 83.399 64.916C83.7537 65.0653 84.1364 65.14 84.547 65.14C84.9577 65.14 85.3404 65.07 85.695 64.93C86.0497 64.7807 86.339 64.566 86.563 64.286C86.787 63.9967 86.899 63.6467 86.899 63.236L86.675 62.396C86.675 62.6947 86.6097 62.9467 86.479 63.152C86.3484 63.3573 86.1804 63.5113 85.975 63.614C85.7697 63.7167 85.5457 63.768 85.303 63.768C85.135 63.768 84.981 63.74 84.841 63.684C84.701 63.6187 84.589 63.53 84.505 63.418C84.421 63.2967 84.379 63.152 84.379 62.984ZM83.441 60.534C83.5344 60.478 83.6837 60.408 83.889 60.324C84.0944 60.2307 84.3324 60.1513 84.603 60.086C84.883 60.0207 85.1677 59.988 85.457 59.988C85.653 59.988 85.8257 60.0067 85.975 60.044C86.1337 60.0813 86.2644 60.142 86.367 60.226C86.4697 60.31 86.5444 60.4127 86.591 60.534C86.647 60.646 86.675 60.7813 86.675 60.94V65H88.705V60.464C88.705 60.016 88.5744 59.638 88.313 59.33C88.0517 59.022 87.697 58.7887 87.249 58.63C86.801 58.462 86.2924 58.378 85.723 58.378C85.1164 58.378 84.5564 58.4573 84.043 58.616C83.5297 58.7747 83.091 58.9427 82.727 59.12L83.441 60.534ZM92.3739 58.56H90.2879V65H92.3739V58.56ZM94.2359 60.744L95.1459 58.938C95.0339 58.77 94.8706 58.6393 94.6559 58.546C94.4412 58.4527 94.2172 58.406 93.9839 58.406C93.6292 58.406 93.2886 58.5227 92.9619 58.756C92.6352 58.9893 92.3692 59.3067 92.1639 59.708C91.9679 60.1093 91.8699 60.5667 91.8699 61.08L92.3739 61.822C92.3739 61.514 92.4159 61.2527 92.4999 61.038C92.5839 60.8233 92.7052 60.66 92.8639 60.548C93.0226 60.436 93.2046 60.38 93.4099 60.38C93.5966 60.38 93.7506 60.4127 93.8719 60.478C94.0026 60.5433 94.1239 60.632 94.2359 60.744ZM96.3938 62.662L95.5118 64.062C95.8011 64.286 96.1138 64.4913 96.4498 64.678C96.7858 64.8553 97.1498 64.9953 97.5418 65.098C97.9431 65.21 98.3724 65.266 98.8298 65.266C99.6044 65.266 100.202 65.0933 100.622 64.748C101.051 64.3933 101.266 63.8707 101.266 63.18C101.266 62.7787 101.177 62.4567 101 62.214C100.832 61.9713 100.603 61.7707 100.314 61.612C100.034 61.4533 99.7258 61.3133 99.3898 61.192C99.0724 61.0707 98.8018 60.9727 98.5778 60.898C98.3631 60.814 98.1951 60.7253 98.0738 60.632C97.9618 60.5387 97.9058 60.422 97.9058 60.282C97.9058 60.1607 97.9524 60.0627 98.0458 59.988C98.1484 59.9133 98.2978 59.876 98.4938 59.876C98.7831 59.876 99.1004 59.96 99.4458 60.128C99.7911 60.2867 100.099 60.492 100.37 60.744L101.126 59.372C100.874 59.1853 100.603 59.022 100.314 58.882C100.034 58.742 99.7304 58.63 99.4038 58.546C99.0864 58.462 98.7411 58.42 98.3678 58.42C97.9011 58.42 97.4858 58.49 97.1218 58.63C96.7671 58.77 96.4824 58.9753 96.2678 59.246C96.0624 59.5167 95.9598 59.848 95.9598 60.24C95.9598 60.6507 96.0484 60.9867 96.2258 61.248C96.4031 61.5093 96.6271 61.7193 96.8978 61.878C97.1778 62.0273 97.4718 62.158 97.7798 62.27C98.1251 62.3727 98.3958 62.4707 98.5918 62.564C98.7971 62.6573 98.9418 62.7553 99.0258 62.858C99.1098 62.9513 99.1518 63.068 99.1518 63.208C99.1518 63.3573 99.1004 63.4787 98.9978 63.572C98.8951 63.6653 98.7364 63.712 98.5218 63.712C98.3724 63.712 98.1951 63.684 97.9898 63.628C97.7844 63.5627 97.5464 63.4553 97.2758 63.306C97.0144 63.1473 96.7204 62.9327 96.3938 62.662ZM36.0044 85H40.9464V83.054H36.0044V85ZM36.0044 77.146H40.9464V75.2H36.0044V77.146ZM36.0044 80.8H40.6664V78.896H36.0044V80.8ZM34.4364 75.2V85H36.7044V75.2H34.4364ZM46.7919 78.56L45.5879 80.254L44.4119 78.56H41.9759L44.4819 81.696L41.8359 85H44.2719L45.5879 83.124L46.9319 85H49.2839L46.6799 81.696L49.1439 78.56H46.7919ZM52.2131 88.08V78.56H50.0991V88.08H52.2131ZM57.4771 81.78C57.4771 81.024 57.3278 80.394 57.0291 79.89C56.7398 79.3767 56.3618 78.9893 55.8951 78.728C55.4378 78.4667 54.9431 78.336 54.4111 78.336C53.8511 78.336 53.3658 78.4807 52.9551 78.77C52.5538 79.05 52.2458 79.4467 52.0311 79.96C51.8164 80.4733 51.7091 81.08 51.7091 81.78C51.7091 82.4707 51.8164 83.0773 52.0311 83.6C52.2458 84.1133 52.5538 84.5147 52.9551 84.804C53.3658 85.084 53.8511 85.224 54.4111 85.224C54.9431 85.224 55.4378 85.0933 55.8951 84.832C56.3618 84.5707 56.7398 84.1833 57.0291 83.67C57.3278 83.1567 57.4771 82.5267 57.4771 81.78ZM55.2511 81.78C55.2511 82.116 55.1811 82.4007 55.0411 82.634C54.9011 82.8673 54.7144 83.0447 54.4811 83.166C54.2478 83.2873 53.9911 83.348 53.7111 83.348C53.4684 83.348 53.2304 83.292 52.9971 83.18C52.7731 83.0587 52.5864 82.8813 52.4371 82.648C52.2878 82.4147 52.2131 82.1253 52.2131 81.78C52.2131 81.4347 52.2878 81.1453 52.4371 80.912C52.5864 80.6787 52.7731 80.506 52.9971 80.394C53.2304 80.2727 53.4684 80.212 53.7111 80.212C53.9911 80.212 54.2478 80.2727 54.4811 80.394C54.7144 80.5153 54.9011 80.6927 55.0411 80.926C55.1811 81.1593 55.2511 81.444 55.2511 81.78ZM62.0297 85.14C62.8511 85.14 63.5464 84.9813 64.1157 84.664C64.6944 84.3467 65.1517 83.8707 65.4877 83.236L63.5977 82.774C63.4391 83.054 63.2244 83.264 62.9537 83.404C62.6924 83.544 62.3751 83.614 62.0017 83.614C61.6751 83.614 61.3997 83.544 61.1757 83.404C60.9517 83.2547 60.7837 83.04 60.6717 82.76C60.5597 82.48 60.5037 82.144 60.5037 81.752C60.5131 81.3227 60.5691 80.968 60.6717 80.688C60.7837 80.3987 60.9471 80.184 61.1617 80.044C61.3764 79.904 61.6424 79.834 61.9597 79.834C62.2117 79.834 62.4311 79.89 62.6177 80.002C62.8044 80.114 62.9491 80.2727 63.0517 80.478C63.1544 80.6833 63.2057 80.926 63.2057 81.206C63.2057 81.2713 63.1871 81.3553 63.1497 81.458C63.1217 81.5513 63.0844 81.6307 63.0377 81.696L63.5417 81.052H59.5657V82.228H65.4457C65.4644 82.1627 65.4737 82.0833 65.4737 81.99C65.4737 81.8873 65.4737 81.7847 65.4737 81.682C65.4737 80.9913 65.3384 80.4033 65.0677 79.918C64.7971 79.4327 64.4051 79.064 63.8917 78.812C63.3784 78.5507 62.7484 78.42 62.0017 78.42C61.2551 78.42 60.6064 78.5553 60.0557 78.826C59.5144 79.0967 59.0991 79.484 58.8097 79.988C58.5204 80.492 58.3757 81.0893 58.3757 81.78C58.3757 82.4613 58.5251 83.054 58.8237 83.558C59.1224 84.062 59.5424 84.454 60.0837 84.734C60.6344 85.0047 61.2831 85.14 62.0297 85.14ZM68.8651 78.56H66.7791V85H68.8651V78.56ZM70.7271 80.744L71.6371 78.938C71.5251 78.77 71.3618 78.6393 71.1471 78.546C70.9325 78.4527 70.7085 78.406 70.4751 78.406C70.1205 78.406 69.7798 78.5227 69.4531 78.756C69.1265 78.9893 68.8605 79.3067 68.6551 79.708C68.4591 80.1093 68.3611 80.5667 68.3611 81.08L68.8651 81.822C68.8651 81.514 68.9071 81.2527 68.9911 81.038C69.0751 80.8233 69.1965 80.66 69.3551 80.548C69.5138 80.436 69.6958 80.38 69.9011 80.38C70.0878 80.38 70.2418 80.4127 70.3631 80.478C70.4938 80.5433 70.6151 80.632 70.7271 80.744ZM72.409 76.138C72.409 76.474 72.5303 76.7493 72.773 76.964C73.0157 77.1787 73.305 77.286 73.641 77.286C73.9863 77.286 74.2757 77.1787 74.509 76.964C74.7517 76.7493 74.873 76.474 74.873 76.138C74.873 75.802 74.7517 75.5313 74.509 75.326C74.2757 75.1113 73.9863 75.004 73.641 75.004C73.305 75.004 73.0157 75.1113 72.773 75.326C72.5303 75.5313 72.409 75.802 72.409 76.138ZM72.619 78.56V85H74.663V78.56H72.619ZM79.6801 85.14C80.5015 85.14 81.1968 84.9813 81.7661 84.664C82.3448 84.3467 82.8021 83.8707 83.1381 83.236L81.2481 82.774C81.0895 83.054 80.8748 83.264 80.6041 83.404C80.3428 83.544 80.0255 83.614 79.6521 83.614C79.3255 83.614 79.0501 83.544 78.8261 83.404C78.6021 83.2547 78.4341 83.04 78.3221 82.76C78.2101 82.48 78.1541 82.144 78.1541 81.752C78.1635 81.3227 78.2195 80.968 78.3221 80.688C78.4341 80.3987 78.5975 80.184 78.8121 80.044C79.0268 79.904 79.2928 79.834 79.6101 79.834C79.8621 79.834 80.0815 79.89 80.2681 80.002C80.4548 80.114 80.5995 80.2727 80.7021 80.478C80.8048 80.6833 80.8561 80.926 80.8561 81.206C80.8561 81.2713 80.8375 81.3553 80.8001 81.458C80.7721 81.5513 80.7348 81.6307 80.6881 81.696L81.1921 81.052H77.2161V82.228H83.0961C83.1148 82.1627 83.1241 82.0833 83.1241 81.99C83.1241 81.8873 83.1241 81.7847 83.1241 81.682C83.1241 80.9913 82.9888 80.4033 82.7181 79.918C82.4475 79.4327 82.0555 79.064 81.5421 78.812C81.0288 78.5507 80.3988 78.42 79.6521 78.42C78.9055 78.42 78.2568 78.5553 77.7061 78.826C77.1648 79.0967 76.7495 79.484 76.4601 79.988C76.1708 80.492 76.0261 81.0893 76.0261 81.78C76.0261 82.4613 76.1755 83.054 76.4741 83.558C76.7728 84.062 77.1928 84.454 77.7341 84.734C78.2848 85.0047 78.9335 85.14 79.6801 85.14ZM88.6155 81.08V85H90.8135V80.856C90.8135 80.0813 90.6315 79.4793 90.2675 79.05C89.9035 78.6207 89.3202 78.406 88.5175 78.406C88.0415 78.406 87.6402 78.504 87.3135 78.7C86.9962 78.896 86.7442 79.1713 86.5575 79.526V78.56H84.4295V85H86.5575V81.08C86.5575 80.828 86.6042 80.6133 86.6975 80.436C86.7908 80.2587 86.9215 80.1233 87.0895 80.03C87.2575 79.9367 87.4535 79.89 87.6775 79.89C88.0135 79.89 88.2515 79.9927 88.3915 80.198C88.5408 80.4033 88.6155 80.6973 88.6155 81.08ZM94.2603 81.78C94.2603 81.4627 94.3349 81.178 94.4843 80.926C94.6336 80.674 94.8389 80.4733 95.1003 80.324C95.3709 80.1747 95.6603 80.1 95.9683 80.1C96.2016 80.1 96.4396 80.1373 96.6823 80.212C96.9249 80.2867 97.1489 80.394 97.3543 80.534C97.5689 80.674 97.7416 80.8467 97.8723 81.052V78.98C97.6483 78.8213 97.3683 78.6907 97.0323 78.588C96.6963 78.476 96.2856 78.42 95.8003 78.42C95.0909 78.42 94.4516 78.56 93.8823 78.84C93.3223 79.12 92.8789 79.512 92.5523 80.016C92.2349 80.5107 92.0763 81.0987 92.0763 81.78C92.0763 82.452 92.2349 83.04 92.5523 83.544C92.8789 84.048 93.3223 84.44 93.8823 84.72C94.4516 85 95.0909 85.14 95.8003 85.14C96.2856 85.14 96.6963 85.0887 97.0323 84.986C97.3683 84.874 97.6483 84.7293 97.8723 84.552V82.494C97.7416 82.6993 97.5736 82.872 97.3683 83.012C97.1723 83.152 96.9529 83.264 96.7103 83.348C96.4769 83.4227 96.2296 83.46 95.9683 83.46C95.6603 83.46 95.3709 83.39 95.1003 83.25C94.8389 83.11 94.6336 82.9187 94.4843 82.676C94.3349 82.424 94.2603 82.1253 94.2603 81.78ZM102.676 85.14C103.498 85.14 104.193 84.9813 104.762 84.664C105.341 84.3467 105.798 83.8707 106.134 83.236L104.244 82.774C104.086 83.054 103.871 83.264 103.6 83.404C103.339 83.544 103.022 83.614 102.648 83.614C102.322 83.614 102.046 83.544 101.822 83.404C101.598 83.2547 101.43 83.04 101.318 82.76C101.206 82.48 101.15 82.144 101.15 81.752C101.16 81.3227 101.216 80.968 101.318 80.688C101.43 80.3987 101.594 80.184 101.808 80.044C102.023 79.904 102.289 79.834 102.606 79.834C102.858 79.834 103.078 79.89 103.264 80.002C103.451 80.114 103.596 80.2727 103.698 80.478C103.801 80.6833 103.852 80.926 103.852 81.206C103.852 81.2713 103.834 81.3553 103.796 81.458C103.768 81.5513 103.731 81.6307 103.684 81.696L104.188 81.052H100.212V82.228H106.092C106.111 82.1627 106.12 82.0833 106.12 81.99C106.12 81.8873 106.12 81.7847 106.12 81.682C106.12 80.9913 105.985 80.4033 105.714 79.918C105.444 79.4327 105.052 79.064 104.538 78.812C104.025 78.5507 103.395 78.42 102.648 78.42C101.902 78.42 101.253 78.5553 100.702 78.826C100.161 79.0967 99.7456 79.484 99.4562 79.988C99.1669 80.492 99.0222 81.0893 99.0222 81.78C99.0222 82.4613 99.1716 83.054 99.4702 83.558C99.7689 84.062 100.189 84.454 100.73 84.734C101.281 85.0047 101.93 85.14 102.676 85.14Z" fill="white"/>
</svg>
